<svg xmlns="http://www.w3.org/2000/svg" viewBox="0 0 16 16"><path d="M8 15.5a7.6 7.6 0 0 1-6.9-4.58C.7 10 .5 9.03.5 8a7.62 7.62 0 0 1 4.58-6.9C6 .7 6.97.5 8 .5a7.62 7.62 0 0 1 6.9 4.58c.4.91.6 1.88.6 2.92a7.6 7.6 0 0 1-4.58 6.9c-.91.4-1.88.6-2.92.6Zm0-.83a9.76 9.76 0 0 0 1.98-3.88H6.02A9.46 9.46 0 0 0 8 14.67Zm-1.06-.12a9.78 9.78 0 0 1-1.78-3.76h-3.2A6.6 6.6 0 0 0 4 13.34a6.13 6.13 0 0 0 2.95 1.2Zm2.12 0a6.13 6.13 0 0 0 2.95-1.21 6.6 6.6 0 0 0 2.03-2.55h-3.2c-.2.7-.47 1.4-.8 2.07a9.93 9.93 0 0 1-.98 1.69Zm-7.44-4.6h3.36A9.89 9.89 0 0 1 4.81 8a11.84 11.84 0 0 1 .17-1.96H1.62A6.18 6.18 0 0 0 1.33 8a6.86 6.86 0 0 0 .3 1.96Zm4.2 0h4.36a10.03 10.03 0 0 0 .14-2.92c-.03-.32-.07-.64-.14-.99H5.82a10.01 10.01 0 0 0-.14 2.93c.03.32.07.64.14.99Zm5.2 0h3.36A6.17 6.17 0 0 0 14.67 8a6.86 6.86 0 0 0-.3-1.96h-3.35A9.87 9.87 0 0 1 11.19 8a11.86 11.86 0 0 1-.17 1.96Zm-.18-4.74h3.2a6.58 6.58 0 0 0-2-2.55 6.49 6.49 0 0 0-2.98-1.22 11.5 11.5 0 0 1 1.78 3.78Zm-4.82 0h3.96c-.22-.78-.49-1.49-.81-2.12A9.25 9.25 0 0 0 8 1.33a9.25 9.25 0 0 0-1.17 1.76c-.32.63-.6 1.34-.81 2.12Zm-4.06 0h3.2a11.5 11.5 0 0 1 1.78-3.77A6.4 6.4 0 0 0 1.96 5.2Z"/></svg>