<svg xmlns="http://www.w3.org/2000/svg" viewBox="0 0 116.27 19"><g fill="#144282"><path d="m101.3 5.64-4.55-2.62v5.24l4.55 2.61Z"/><path d="m101.56 5.17 4.41-2.55L101.43 0l-4.4 2.55Z"/><path d="m106.24 8.5-4.41-2.55v5.24l4.41 2.54Z"/><path d="m106.51 2.93-4.4 2.55 4.4 2.55 4.41-2.54Z"/><path d="m111.19 5.95-4.4 2.55v5.23l4.4-2.55Z"/><path d="m111.58 0-4.53 2.62 4.41 2.55L116 2.55Z"/><path d="M111.73 5.64v5.23l4.54-2.62V3.02Z"/><g transform="translate(0 .96)"><path d="M89.3 12.63c0 1.89-1.35 2.92-3.27 2.92a1.68 1.68 0 0 1-1.82-1.6 1.8 1.8 0 0 1 1.84-1.67l3.25-.25Zm4.1 4.94V15.3a1.77 1.77 0 0 1-.4.05c-.52 0-.72-.22-.72-.81V9.8a7.1 7.1 0 0 0-.37-2.58c-.73-1.9-2.6-2.6-4.79-2.6-2.84 0-5.13 1.28-5.3 4.15h2.97c.07-1.18.9-1.81 2.34-1.81 1.74 0 2.16.8 2.16 2.01v.79l-3.77.27c-2.43.17-4.32 1.57-4.32 4 0 2.09 1.57 4 4.62 4a4.48 4.48 0 0 0 3.88-1.92 2 2 0 0 0 2.16 1.8 3.06 3.06 0 0 0 1.54-.34M78.6 4.94h-3.12v12.78h3.11ZM78.67 0h-3.3v3.17h3.3Z"/><path d="M72.5 17.72V9.19c0-2.65-1.6-4.57-4.32-4.57a4.22 4.22 0 0 0-3.77 1.96l-.22-1.64h-2.58V17.7h3.07v-5.2a8.93 8.93 0 0 1 .42-3.42 2.4 2.4 0 0 1 2.2-1.62c1.63 0 2.12.9 2.12 2.4v7.84h3.08Z"/><path d="M56.27 11.33a4.72 4.72 0 0 1-.91 3.22 2.73 2.73 0 0 1-3.88 0 4.7 4.7 0 0 1-.9-3.22 4.72 4.72 0 0 1 .9-3.21 2.73 2.73 0 0 1 3.88 0 4.72 4.72 0 0 1 .9 3.21m3.13 0a6.94 6.94 0 0 0-1.5-4.71 6.01 6.01 0 0 0-8.94 0 6.95 6.95 0 0 0-1.5 4.71 6.94 6.94 0 0 0 1.5 4.72 6.01 6.01 0 0 0 8.94 0 6.98 6.98 0 0 0 1.5-4.72M46.26 4.95h-2.92l-1.97 8.34-2.7-8.23h-2.53l-2.67 8.26-2.03-8.38h-2.98l3.25 12.78h2.84l2.85-8.63 2.9 8.63h2.85Z"/><path d="M23.51 12.63c0 1.89-1.35 2.92-3.27 2.92a1.68 1.68 0 0 1-1.81-1.6 1.8 1.8 0 0 1 1.84-1.67l3.24-.24Zm4.1 4.94V15.3a1.77 1.77 0 0 1-.4.05c-.52 0-.71-.22-.71-.81V9.8a7.1 7.1 0 0 0-.37-2.58c-.74-1.91-2.6-2.6-4.8-2.6-2.84 0-5.13 1.27-5.3 4.15H19c.08-1.18.91-1.82 2.34-1.82 1.74 0 2.16.81 2.16 2.02v.78l-3.76.28c-2.43.17-4.33 1.57-4.33 4 0 2.08 1.57 4 4.62 4a4.49 4.49 0 0 0 3.88-1.92 2 2 0 0 0 2.16 1.8 3.13 3.13 0 0 0 1.54-.34"/><path d="M10.5 9c0 1.6-.03 3.65-1.26 4.89a3.45 3.45 0 0 1-2.46.98h-3.6V3.15h3.6a3.45 3.45 0 0 1 2.46.98C10.47 5.36 10.5 7.4 10.5 9m3.22 0c0-2.41-.25-5-2.04-6.83A6.66 6.66 0 0 0 6.78.3H0v17.42h6.78a6.66 6.66 0 0 0 4.9-1.87c1.78-1.84 2.03-4.45 2.03-6.86"/></g></g></svg>