<svg xmlns="http://www.w3.org/2000/svg" viewBox="0 0 611.3 124.5"><path fill="#16463f" d="M0 68.3c0-8 2.6-14.9 8-20.5s11.9-8.5 20-8.5A24.7 24.7 0 0 1 53.4 65c0 1.3 0 2.5-.2 3.6-.1.7-.4 1.3-1 1.8s-1 .7-1.7.7H15c0 3.6 1.4 6.6 4 9.1S25 84 28.8 84c4.6 0 8.5-1.4 11.9-4.1 1.5-1.3 2.7-1.3 3.6 0l4.7 6.2c1 1.3 1 2.5-.3 3.6-5.9 5-12.8 7.6-20.6 7.6s-14.9-2.8-20.2-8.5S0 76.3 0 68.3Zm15.8-7h22.5c-.2-2.7-1.2-5-3.2-6.8s-4.5-2.8-7.5-2.8c-3.3 0-6 .9-8 2.7s-3.4 4.1-3.8 6.9ZM61.4 96c-1 0-1.8-.5-2.2-1.4s-.2-1.8.4-2.7l17.7-24.1-17-23.2c-.7-.9-.8-1.8-.4-2.7s1.3-1.4 2.4-1.4h10.9c2 0 3.6.7 4.6 2L87 57h.2l9.5-14.5c.9-1.3 2.3-2 4.2-2h11.8c1.2 0 2 .5 2.2 1.4s0 1.8-.7 2.7l-17 23 17.2 24.3c.7.9.9 1.8.6 2.7s-1 1.4-2.2 1.4h-11.5c-1.5 0-2.8-.8-3.9-2.3L87.2 78.5H87L76.2 94.9c-.6.7-1.3 1-2.3 1H61.4ZM181.6 68.4c0 8.2-2.6 15.1-7.7 20.6s-11.7 8.3-19.8 8.3c-4.9 0-9.3-.8-13.3-2.3V122c0 .6-.3 1.2-.9 1.8s-1.1.8-1.8.8h-9.7c-.7 0-1.3-.2-1.9-.8s-.7-1.2-.7-1.8V43.2c0-.7.2-1.4.7-1.9s1.2-.8 1.9-.8h4.4c1.2 0 2.1 1 2.7 2.7l1.4 4.4.7-.9c.3-.4 1.1-1 2.3-2s2.4-1.8 3.7-2.5 3-1.4 5-2 4.3-.9 6.4-.9c7.6 0 14 2.8 19 8.3s7.6 12.4 7.6 20.8Zm-40.8-7.7v19.8c3 2 6.8 3.1 11.5 3.1 4.3 0 7.7-1.5 10.1-4.5s3.7-6.6 3.7-10.7-1.2-7.8-3.5-10.8-5.5-4.6-9.6-4.6a12.8 12.8 0 0 0-12.2 7.7ZM190.3 68.3c0-8 2.7-14.9 8-20.5s11.9-8.5 20-8.5A24.7 24.7 0 0 1 243.7 65c0 1.3 0 2.5-.2 3.6-.1.7-.4 1.3-1 1.8s-1 .7-1.7.7h-35.5c.1 3.6 1.4 6.6 4 9.1s5.9 3.8 9.8 3.8c4.6 0 8.5-1.4 11.9-4.1 1.5-1.3 2.7-1.3 3.6 0l4.7 6.2c1.1 1.3 1 2.5-.3 3.6-5.9 5-12.8 7.6-20.6 7.6s-14.9-2.8-20.2-8.5-7.9-12.5-7.9-20.5Zm15.9-7h22.4c-.2-2.7-1.2-5-3.2-6.8s-4.4-2.8-7.5-2.8c-3.3 0-6 .9-8 2.7s-3.3 4.1-3.7 6.9ZM255 93.3V43.2c0-.7.3-1.4.8-1.9s1.1-.8 1.8-.8h4.5c1 0 1.9.6 2.4 1.8l2 5.4c4-5.6 9.1-8.4 15.6-8.4 3.5 0 6.3.5 8.4 1.5s2.8 2.3 2 4l-3.5 8.1c-.7 1.4-1.8 1.8-3.3 1.2-1.6-.7-3.3-1-5.2-1-2.6 0-4.9.6-6.7 1.8s-3.2 2.6-3.8 3.9v34.5c0 1.8-1 2.7-3.1 2.7h-9.3c-.6 0-1.2-.3-1.8-.8s-.8-1.1-.8-1.9ZM301.4 93.3V43.2c0-.7.3-1.4.8-1.9s1.1-.8 1.9-.8h9.7c.7 0 1.3.3 1.9.8s.7 1.2.7 1.9v50.1c0 .8-.2 1.4-.8 1.9s-1.2.8-1.8.8H304c-.7 0-1.3-.3-1.8-.8s-.9-1.1-.9-1.9ZM328.4 68.3c0-8 2.7-14.9 8-20.5s12-8.5 20-8.5A24.7 24.7 0 0 1 381.8 65c0 1.3 0 2.5-.2 3.6 0 .7-.4 1.3-1 1.8s-1 .7-1.6.7h-35.6A13.4 13.4 0 0 0 357.2 84c4.6 0 8.6-1.3 12-4 1.4-1.3 2.6-1.3 3.5 0l4.7 6.2c1.1 1.3 1 2.5-.2 3.6-6 5-12.8 7.6-20.7 7.6s-14.9-2.8-20.1-8.5-8-12.5-8-20.5Zm15.9-7h22.4c-.2-2.7-1.2-5-3.2-6.8s-4.4-2.8-7.5-2.8c-3.3 0-6 .9-8 2.7s-3.3 4.1-3.7 6.9ZM393.1 93.3V43.2c0-.7.3-1.4.8-1.9s1.1-.8 1.9-.8h4.5c1.1 0 1.9.6 2.3 1.7l2 5.2a23 23 0 0 1 18-8c14.7 0 22.1 8.4 22.1 25.3v28.6c0 .8-.3 1.4-.8 1.9s-1.2.8-1.8.8h-9.8c-.7 0-1.3-.3-1.8-.8s-.8-1.1-.8-1.9V64.7c0-7.8-3.2-11.7-9.6-11.7-6 0-10 2.9-12 8.7v31.6c0 1-.2 1.8-.7 2.1s-1.4.6-2.8.6h-8.9c-.6 0-1.2-.3-1.8-.8s-.8-1.1-.8-1.9ZM456.1 68.3c0-8.2 2.8-15 8.5-20.6s12.7-8.4 21-8.4 14.7 3.2 20.5 9.4c1.2 1.1 1 2.4-.6 4l-5 5.5c-1 1.1-2.2 1-3.6-.4-3.4-3.2-7-4.8-11-4.8-4.3 0-7.8 1.5-10.5 4.4s-4.2 6.5-4.2 10.9 1.4 8 4.1 11 6.2 4.3 10.4 4.3 8.3-2 11.8-6.1c.4-.5 1-.8 1.7-.8s1.3 0 1.8.4l5.4 4.6c1.5 1.4 1.8 2.7 1 4a24.4 24.4 0 0 1-22 11.6 28.6 28.6 0 0 1-29.3-29ZM514.3 68.3c0-8 2.6-14.9 8-20.5s11.9-8.5 20-8.5A24.7 24.7 0 0 1 567.7 65c0 1.3 0 2.5-.2 3.6-.1.7-.4 1.3-1 1.8s-1 .7-1.7.7h-35.5c0 3.6 1.4 6.6 4 9.1s5.9 3.8 9.8 3.8c4.6 0 8.5-1.4 11.9-4.1 1.5-1.3 2.7-1.3 3.6 0l4.7 6.2c1 1.3 1 2.5-.3 3.6-5.9 5-12.8 7.6-20.6 7.6s-14.9-2.8-20.2-8.5-7.9-12.5-7.9-20.5Zm15.8-7h22.5c-.2-2.7-1.2-5-3.2-6.8s-4.4-2.8-7.5-2.8c-3.3 0-6 .9-8 2.7s-3.3 4.1-3.7 6.9Z"/><path fill="#44d62c" d="M531 10.3c0-2.8 1-5.2 3-7.2s4.4-3.1 7.2-3.1 5.2 1 7.2 3a10 10 0 0 1 0 14.4 9.9 9.9 0 0 1-14.5 0c-2-2-3-4.4-3-7ZM561 10.3c0-2.8 1-5.2 3-7.2S568.2 0 571 0s5.2 1 7.3 3 3 4.5 3 7.3-1 5.1-3 7.1a10 10 0 0 1-14.5 0c-2-2-3-4.4-3-7ZM590.8 10.3c0-2.8 1-5.2 3-7.2S598.2 0 601 0s5.2 1 7.2 3a10 10 0 0 1 0 14.4c-2 2-4.4 3.1-7.2 3.1s-5.2-1-7.2-3-3-4.5-3-7.2Z"/></svg>