<svg xmlns="http://www.w3.org/2000/svg" width="1024" height="1024" fill="none" viewBox="0 0 1024 1024"><path fill="#ff7640" d="M0 0h1024v1024H0z"/><path fill="#db673a" d="M297 0c.3 5.3 1.3 10.7 4.3 16-1.2 4.4-.7 8.6-4.9 13.1a62.7 62.7 0 0 0-16.3 51c-19.8 10.5-13 30.3-16.3 46.6-4.5 13.3 2.7 25.3 3.9 38-2.3 2.7-4.3 5.4-2.8 9.2-3.6 11.2-12 21.9-3.2 34.2H261.4c-3 11-10 21.7-3.5 33.7l3 11.9 1 5.7 1.9 43 1 9.4c-7.8 24.4-2.5 46.8 10 68.2L278 392c.6 6 3.1 11 7.8 14.7 1.5 22 6.2 43.3 14.1 64 1.9 9.5 4.2 18.9 10.7 26.6 0 6 1.1 11.3 7.3 14l4.6 8.2 12 33.3c8.4 19.7 25 32.7 39.4 47.4l9.8 19.4c1.1 9 10.2 12.6 14 19.7h.1l12.4 12.5c-4 8.5 1.6 11.7 7.8 14.6a187.8 187.8 0 0 0 40 37.5l26.9 15.7a119.8 119.8 0 0 0 36.5 32.4c7 13.4 22.8 15 32.8 24.2l2 5.6c1 5.6 5.1 8 9.8 10h.1l11.1 6.6c6.3 5.2 14.2 5.6 21.7 7.2l11.6 6.7a41.7 41.7 0 0 0 24.2 5.2c3 0 6-.2 8.9-.3.8 1.1 1.8 1.9 3 2.4 3.2 8.7 9.1 5.3 14.7 3.3l9.9-.2 4 1.8a118 118 0 0 0 34.5 19.9c4.5 2.2 8.6 5.8 14.2 3.7 21.4-4.4 32.5 13.5 47.9 22 9.2 5.8 18.1 12.4 29.7 12.7a59.4 59.4 0 0 0 30.7 6.6l10 .6 36.3 1c19 9.8 35-8.9 53.3-5.4l6.2-.7 24.2-7.3c6 .2 11.3-1.4 14.6-6.9l5.7-2.1 41.5-2.5v-26.3c-8-1.2-16-2-23.8-4.3-7-2-14.4-.8-19 6.3v.2c-4.4-2.3-8-2.5-10.1 1.3l-.9-.5c-9.4-1.2-18.8-2.8-27.7 1.2l-1.3-1.2c-5.6-3.5-11.3-4-17.1-.3a7 7 0 0 1-1.3 2.3c-8.3 0-17-1.3-23.5 6a3.9 3.9 0 0 0-3-1.2c-11-2.1-21.7-6.9-33.4-5v-.1c-11.8-8.7-25-5.8-38-4.3-4.2-1.9-8-.5-11.6 1.8l-35.6-8.2-8.2-2.3c-.6-1.4-1.4-2.7-2.5-4-16.8-9.1-42-37.9-62.5-35.2a158.9 158.9 0 0 0-28.2-47 18 18 0 0 1-1.8-.3c2.6-10-6-13.8-12.6-18.7a61.7 61.7 0 0 1-24.7-14 21.6 21.6 0 0 0-12-3.6c-11.2-.3-19.2-7.4-28-13-10.3-6.3-20.4-13.6-33.6-8l-.5 1.1c-7-6.4-12.4-3-17.3 3.1l.2-1.5c-5.4-13-16.2-11.7-27-10.4-1 .8-1.9 1.5-2.8 2-9.9-3.3-20-5.8-26.5-15.3-11-12.7-22.7-24.7-38.5-31.7a80.1 80.1 0 0 0-16.9-12c-2.6-1.9-5.3-3.7-8-5.4-2.8-1.2-5.3-1.1-7.7.5-2.5-4.7-7-6.9-11.9-8.2-.9.1-1.8.2-2.8.1 1.1-5.4-1.3-9.8-5.4-13.6l-2-.8c.4-8.2-3.9-15-7-22.1a9.7 9.7 0 0 1-4.2 1.8c1.4-.4 2.7-1 4.1-1.8l-11.4-21 .7-2.7c-1.3-9.3-5-16.7-15.2-19-.8 0-1.6.3-2.3.6l-9.8-8.9a16.3 16.3 0 0 0-6-14.2l-.6-.5c2.1-8.8-3.5-12.5-12.3-14.2l-.4.1-3-7a5 5 0 0 0 .8-2.1c1.4-10.2-3.3-16.4-11.4-20.5 8.8-19.1 2.7-35-11.6-49.4-2.2-1.4-3.9-2.9-4.9-4.6l-1-3.1c0-1.8.5-3.8 2-6 1.3-6.2 2.3-12.2-5.2-14l.3-.4c2.8-5.9 2.5-10.4 0-14 6.1-16.6 23-55.9 27.3-76.7-.1 1.9 0 3.7 1 5.2 9.9-6.5 8.6-14.9 4-23.9l-1.9-5.6-1.1-5.7c4.5-10.8 11-21.4 4.5-33.7l-6.5-28.6c3.2-5.4 8.4-10 6-17.4a13.8 13.8 0 0 0-.6-15.7c5.5-23.5 11-47 10-71.3 16-14.7 15.5-35.3 19.7-54.3 3.5-3.8 7.4-7.4 4.6-13.3 4.3-7.7 3.7-15.8 2.3-24v-.1A32 32 0 0 0 380.1 0h-83.2zm-8.2 100.1h.1l-.2.2v-.2zm20.3 86v.2h-.6l.6-.2zm17.3 43.5h.3v.1l-.1.2-.2-.3zm-4.8 53.4h-.1.1zm-.2 0c-.2.5-.5.9-.9 1.2l-.4-1 1.3-.1zm136.8 375.5v.2l-.9.3 1-.3-.5-.1.4-.1zm87.4 34.9c0 .2.2.2.3.3l-.3.2v-.5z"/><path fill="#fff" d="M406.8 192v65.4H422V192Zm147.7 115a53.7 53.7 0 0 0-33 13.1 99.6 99.6 0 0 0-27.7 35.4V310h-15.1V832h15.1V390.3a79.4 79.4 0 0 1 21.2-50.6c12.6-13.4 24.3-20 35.2-20v-.1h4.3c11.5 0 22.4 5.3 32.5 15.8C597 346 602 362.1 602 384v448h15.1V384c0-26-6-45.3-17.8-58a54.4 54.4 0 0 0-40.6-19zm-147.7 3v522H422V310Z"/></svg>