<svg xmlns="http://www.w3.org/2000/svg" width="1180" height="710" viewBox="0 0 118 71"><path fill="#FF7640" d="M31.13 30.81V21.5c0-1.26-.26-2.23-.76-2.89-.5-.66-1.09-1-1.74-1h-.45c-.65 0-1.23.34-1.74 1a4.7 4.7 0 0 0-.76 2.9v4.74c0 1.26.26 2.38.76 3.36s1.13 1.9 1.88 2.76a32.7 32.7 0 0 0 2.45 2.55c.89.83 1.7 1.7 2.45 2.58.74.9 1.37 1.89 1.87 2.98.5 1.1.76 2.33.76 3.71v5.18c0 2.41-.67 4.28-2 5.6a6.45 6.45 0 0 1-4.69 1.99h-1.34c-1.9 0-3.52-.66-4.86-1.99-1.34-1.32-2-3.19-2-5.6v-9.5h4.27v9.41c0 1.27.26 2.23.76 2.9.5.66 1.15.99 1.92.99h.63c.7 0 1.32-.33 1.82-1 .5-.66.76-1.62.76-2.89v-4.83c0-1.78-.53-3.3-1.6-4.57a67.96 67.96 0 0 0-3.48-3.8 36.11 36.11 0 0 1-3.48-4.1 8.9 8.9 0 0 1-1.6-5.39v-5.17c0-2.42.65-4.3 1.96-5.66a6.44 6.44 0 0 1 4.81-2.02h.8c1.9 0 3.53.67 4.87 2.02 1.34 1.36 2 3.24 2 5.66v9.4h-4.28ZM48.43 13.73c1.9 0 3.28.68 4.15 2.03.86 1.35 1.29 3.23 1.29 5.65v27.95c0 2.42-.4 4.29-1.2 5.6-.8 1.33-2.16 2-4.06 2h-.27c-.84 0-1.65-.24-2.45-.7a7.83 7.83 0 0 1-2.19-1.9v16.57h-4.72V13.99h3.83l.53 2.67c.72-.86 1.49-1.57 2.32-2.11a4.53 4.53 0 0 1 2.5-.82h.27Zm-1.7 39.43c.66 0 1.22-.32 1.7-.95.47-.63.7-1.6.7-2.93V21.49c0-1.32-.23-2.3-.7-2.93-.48-.63-1.04-.95-1.7-.95h-.27c-.65 0-1.28.4-1.87 1.17-.6.77-.89 1.82-.89 3.14v27.35c.06 1.15.37 2.1.94 2.8.56.73 1.17 1.09 1.83 1.09h.26ZM61.73 3.46v6.99H57v-7h4.73Zm0 10.52v42.7H57v-42.7h4.73ZM72.52 17.61c-.66 0-1.3.38-1.92 1.13a4.82 4.82 0 0 0-1.03 2.93v35.02h-4.73V14h4.73v2.41c.71-.8 1.47-1.45 2.27-1.94s1.62-.73 2.46-.73h.26c2.09 0 3.54.83 4.37 2.5.66 1.38.99 3.1.99 5.18v10.18h-4.73v-10.1c0-1.32-.26-2.3-.76-2.93-.5-.63-1.09-.95-1.74-.95h-.18ZM87.77 3.46v6.99h-4.73v-7h4.72Zm0 10.52v42.7h-4.73v-42.7h4.72ZM96.94 0v13.98h3.75v3.88h-3.75v31.5c0 1.38.33 2.41.98 3.1.66.69 1.58.92 2.77.69v3.7c-3.03.35-5.2-.2-6.51-1.67-1.31-1.47-1.97-3.41-1.97-5.83V17.86h-2.23v-3.88h2.23V.43L96.94 0ZM113.28 30.81V21.5c0-1.26-.26-2.23-.76-2.89-.5-.66-1.09-1-1.74-1h-.45c-.65 0-1.23.34-1.74 1a4.7 4.7 0 0 0-.76 2.9v4.74c0 1.26.25 2.38.76 3.36.5.98 1.13 1.9 1.87 2.76.75.86 1.57 1.71 2.46 2.55.89.83 1.7 1.7 2.45 2.58.74.9 1.36 1.89 1.87 2.98.5 1.1.76 2.33.76 3.71v5.18c0 2.41-.67 4.28-2 5.6a6.45 6.45 0 0 1-4.69 1.99h-1.34c-1.9 0-3.52-.66-4.86-1.99-1.34-1.32-2-3.19-2-5.6v-9.5h4.27v9.41c0 1.27.26 2.23.76 2.9.5.66 1.14.99 1.92.99h.62c.72 0 1.33-.33 1.83-1 .5-.66.76-1.62.76-2.89v-4.83c0-1.78-.53-3.3-1.6-4.57a67.87 67.87 0 0 0-3.48-3.8 36.2 36.2 0 0 1-3.48-4.1 8.9 8.9 0 0 1-1.6-5.39v-5.17c0-2.42.65-4.3 1.96-5.66a6.44 6.44 0 0 1 4.81-2.02h.8c1.9 0 3.53.67 4.86 2.02 1.34 1.36 2.01 3.24 2.01 5.66v9.4h-4.28Z"/><g fill="var(--title,#fff)"><path d="M1.25 4.32v5.35H0V4.32h1.25Zm0 9.66v42.7H0v-42.7h1.25ZM11.73 14.77c-.9 0-1.85.54-2.88 1.63a6.5 6.5 0 0 0-1.73 4.15v36.14H5.88V14h1.24v3.7a8.15 8.15 0 0 1 2.26-2.88 4.4 4.4 0 0 1 2.7-1.08h.35c1.24 0 2.35.51 3.32 1.55.97 1.04 1.46 2.62 1.46 4.74V56.7h-1.24V20.02c0-1.78-.41-3.1-1.23-3.96a3.66 3.66 0 0 0-2.66-1.3h-.35Z"/><path d="M83.71 67.4c.03.1-.06.17-.2.25l-.5.25a7.4 7.4 0 0 1-2.05.6 4.57 4.57 0 0 1-1.95-.15l-.01.08c-.06.38-.22.94-.66 1.4-.35.38-.84.65-1.4.8a4.55 4.55 0 0 1-1.6.12 3.9 3.9 0 0 1-1.6-.43l-.08-.04a.58.58 0 0 1-.07-.04l-.2-.13a1.35 1.35 0 0 1-.13-.09l-.04-.04-.17-.13-.1-.1-.2-.2-.2-.23-.06-.08c-.3-.4-.54-.9-.74-1.44a8.72 8.72 0 0 1-.37-1.56 12.1 12.1 0 0 1-.13-1.59 18.9 18.9 0 0 1 .2-3.19 25.74 25.74 0 0 1 .65-3.16 31.07 31.07 0 0 1 1-3.1c.43-1.12.88-2.1 1.37-2.98.28-.52.56-.98.86-1.41.34-.51.69-.94 1.04-1.3l.14-.16.1-.1.05-.05.3-.25.02-.03.14-.1.04-.03.06-.04.11-.09.08-.04.3-.17c.1-.06.22-.1.33-.14l.08-.03.2-.06.16-.02.07-.01a2.4 2.4 0 0 1 1.7.48c.24.18.43.4.57.67.23.43.33.97.3 1.63-.01.48-.09.99-.24 1.6-.12.47-.28.96-.48 1.5-.34.9-.75 1.8-1.3 2.86-.43.85-.92 1.72-1.5 2.66a60.36 60.36 0 0 1-4.51 6.4 15.58 15.58 0 0 1-.99 1.07c.14.5.32.97.53 1.37.33.59.74 1.03 1.2 1.3l.1.07.1.05a.5.5 0 0 1 .07.04l.12.06.27.1.16.04.34.07c.04 0 .07 0 .1.02l.14.01a1 1 0 0 1 .1 0l.07.01h.14c.72.02 1.3-.09 1.76-.31.26-.14.48-.3.65-.5a2 2 0 0 0 .38-.73c.05-.18.09-.37.1-.57-.28-.18-.52-.4-.71-.65a1.62 1.62 0 0 1-.34-1.08.8.8 0 0 1 .02-.12l.01-.06.01-.04a.59.59 0 0 1 .05-.12l.1-.15a.47.47 0 0 1 .5-.18c.1.02.16.06.21.1.12.08.2.18.24.25.11.16.2.33.28.55a3.76 3.76 0 0 1 .23 1.13c.16.07.33.12.51.17.26.05.53.08.85.08h.01c.54 0 1.02-.1 1.33-.17l.29-.07.25-.08.3-.1c.05 0 .1-.02.15-.04l.24-.08.11-.04.27-.08c.15-.04.24-.05.3-.01.03.01.06.05.07.08v.01Zm-11.67-.6a37.68 37.68 0 0 0 2.57-3.16 61.17 61.17 0 0 0 3.78-5.93 31.2 31.2 0 0 0 1.55-3.26c.25-.62.44-1.19.58-1.71.19-.7.28-1.26.3-1.78 0-.33-.01-.62-.07-.89-.07-.3-.18-.57-.34-.8a2.05 2.05 0 0 0-1.54-.78h-.06c-.26 0-.53.06-.8.19-.25.1-.5.27-.78.49a6.28 6.28 0 0 0-1.26 1.37c-.65.9-1.26 1.97-1.84 3.28a29.07 29.07 0 0 0-2.1 7.27c-.2 1.38-.28 2.6-.23 3.76.03.68.1 1.29.23 1.85l.02.1Z"/><path d="M102.33 66.8a22.6 22.6 0 0 1-2.52 2.52c-.5.42-.92.73-1.35.99-.26.16-.52.3-.78.4-.31.14-.6.22-.9.26h-.03l-.08.02h-.38a1.04 1.04 0 0 1-.55-.2 1 1 0 0 1-.34-.48 1.87 1.87 0 0 1-.09-.49c-.02-.32 0-.62.03-.9l.08-.58c0-.09.02-.17.03-.26.04-.27.07-.54.07-.79 0-.14-.01-.25-.03-.34-.02-.1-.06-.16-.09-.18l-.03-.02-.1-.05a2.6 2.6 0 0 1-.94-.84c-.7.94-3.17 3.95-5.13 4.2l-.17.01-.3-.03c-.16-.03-.32-.1-.46-.2-.25-.2-.42-.48-.52-.81-.07-.26-.1-.55-.08-.9.01-.33.05-.64.1-.88 0-.11.03-.23.05-.35l.1-.56-.04.03-.13.07-.27.17c-.48.29-.96.58-1.46.86a11.18 11.18 0 0 1-1.28.59l-.26.06a1.4 1.4 0 0 1-.35.02.9.9 0 0 1-.4-.11.7.7 0 0 1-.29-.3c-.13-.26-.1-.58-.05-.74.05-.2.16-.37.3-.52.1-.11.25-.22.41-.31.3-.16.6-.25.84-.33.27-.07.54-.12.82-.15.47-.06.75-.02.78-.02.14.02.23.06.29.13.05.06.06.14.02.2a.13.13 0 0 1-.15.05c-.02 0-.03-.01-.03-.02h-.17a3.72 3.72 0 0 0-1.69.47c-.26.15-.47.34-.58.52a.6.6 0 0 0-.09.28.2.2 0 0 0 0 .08l.04.03.1.01c.06 0 .14 0 .2-.02a8.03 8.03 0 0 0 1.36-.52c.33-.16.65-.33.9-.48l.94-.52.3-.14.27-.1h.09c.03 0 .1 0 .14.07.03.04.03.08.02.1l-.01.23v.05l-.14.64-.1.5c-.05.3-.11.64-.13 1-.02.36.03.67.13.91v.01l.04.06.01.03.03.04.02.05.04.04.1.12c.1.09.6.2.79.2 1.3 0 4.54-3.67 4.7-3.87.08-.06.13-.14.19-.2l-.02-.04a1.9 1.9 0 0 1-.16-.44 1.05 1.05 0 0 1 0-.52c.04-.12.1-.23.18-.3a.63.63 0 0 1 .58-.15c.05.01.1.04.15.08.05.05.1.1.11.14l.04.11v.11l-.01.14c-.03.15-.08.25-.11.34l-.11.21-.07.13a2.5 2.5 0 0 0 .87.83l.06.04.07.05.12.13c.06.09.1.18.13.29.06.19.06.37.05.53 0 .33-.06.65-.1.96l-.04.17a12.09 12.09 0 0 0-.14 1.3c0 .18.02.32.06.45.03.1.1.23.23.31.1.07.24.1.4.1.3 0 .6-.06.95-.19.28-.1.57-.25.9-.44.28-.17.56-.36.82-.56a15.9 15.9 0 0 0 2.97-3.1c.14-.2.24-.32.36-.34.06 0 .12.02.17.06.18.14 0 .41-.3.79Z"/></g></svg>