<svg xmlns="http://www.w3.org/2000/svg" width="2400" height="1400" fill="none" viewBox="0 0 2400 1400"><path fill="#004E35" d="M0 0h2400v1400H0z"/><path fill="#fff" d="M875 524.3v30.1h-7v-30.1h7Zm0 54.4V819h-7V578.7h7ZM934 583.1c-5 0-10.3 3-16.2 9.2-5.8 6.2-9 14-9.7 23.3v203.5h-7V578.7h7v20.9a46 46 0 0 1 12.7-16.3c5.2-4 10.3-6 15.2-6h2c7 0 13.3 2.9 18.7 8.7 5.5 5.8 8.3 14.7 8.3 26.7v206.4h-7V612.7c0-10-2.3-17.5-7-22.3a20.6 20.6 0 0 0-15-7.3h-2Z"/><path fill="#FF7640" d="M1043.4 673.4V621c0-7.2-1.5-12.6-4.3-16.3-2.9-3.7-6.1-5.6-9.8-5.6h-2.5c-3.7 0-7 1.9-9.8 5.6a26.4 26.4 0 0 0-4.3 16.3v26.7c0 7 1.4 13.4 4.3 19a80 80 0 0 0 10.5 15.4c4.2 4.9 8.8 9.7 13.8 14.4 5 4.7 9.7 9.5 13.8 14.5 4.2 5 7.8 10.6 10.6 16.8a49.3 49.3 0 0 1 4.3 20.9v29.1c0 13.6-3.8 24.1-11.3 31.6a36.4 36.4 0 0 1-26.4 11.2h-7.6a37.5 37.5 0 0 1-27.4-11.2 42.4 42.4 0 0 1-11.3-31.6v-53.4h24.2v53c0 7 1.4 12.5 4.2 16.2a13 13 0 0 0 10.8 5.6h3.5c4 0 7.5-1.9 10.3-5.6 2.9-3.7 4.3-9.1 4.3-16.3v-27.2c0-10-3-18.6-9-25.7-6-7.1-12.6-14.2-19.6-21.4a203 203 0 0 1-19.6-23 50 50 0 0 1-9-30.4v-29.1c0-13.6 3.6-24.2 11-31.8a36.3 36.3 0 0 1 27.1-11.4h4.5c10.8 0 19.9 3.8 27.4 11.4a43.2 43.2 0 0 1 11.3 31.8v53h-24ZM1140.8 577.3c10.7 0 18.5 3.8 23.4 11.4a59 59 0 0 1 7.2 31.8v157.3a61 61 0 0 1-6.8 31.6c-4.5 7.4-12.1 11.2-22.8 11.2h-1.5c-4.7 0-9.3-1.3-13.8-4a44.1 44.1 0 0 1-12.3-10.6v93.3h-26.7V578.7h21.6l3 15c4-4.8 8.4-8.8 13.1-11.8 4.7-3.1 9.4-4.6 14-4.6h1.6Zm-9.6 222c3.7 0 6.9-1.9 9.6-5.4 2.6-3.6 4-9 4-16.5V621c0-7.5-1.4-13-4-16.5-2.7-3.6-5.9-5.4-9.6-5.4h-1.5c-3.7 0-7.2 2.2-10.5 6.6-3.4 4.3-5 10.3-5 17.7v154c.3 6.4 2 11.7 5.2 15.7 3.2 4.1 6.6 6.1 10.3 6.1h1.5ZM1215.7 519.4v39.4H1189v-39.4h26.7Zm0 59.3V819H1189V578.7h26.7ZM1276.5 599.1c-3.8 0-7.3 2.1-10.9 6.3a27.1 27.1 0 0 0-5.8 16.5v197.2h-26.6V578.7h26.6v13.6c4-4.5 8.3-8.2 12.9-11 4.5-2.7 9-4 13.8-4h1.5c11.7 0 20 4.6 24.6 14a68 68 0 0 1 5.5 29.2v57.3h-26.6V621c0-7.5-1.4-13-4.3-16.6-2.8-3.5-6.1-5.3-9.8-5.3h-1ZM1362.4 519.4v39.4h-26.6v-39.4h26.6Zm0 59.3V819h-26.6V578.7h26.6ZM1414 500v78.7h21.2v21.9H1414v177.2c0 7.8 1.8 13.6 5.5 17.5 3.7 3.9 8.9 5.2 15.6 3.9V820c-17.1 2-29.3-1.2-36.7-9.5a47.4 47.4 0 0 1-11-32.8V600.5h-12.6v-21.8h12.5v-76.3l26.7-2.4ZM1506 673.4V621c0-7.2-1.4-12.6-4.2-16.3-2.9-3.7-6.1-5.6-9.8-5.6h-2.5c-3.7 0-7 1.9-9.8 5.6a26.4 26.4 0 0 0-4.3 16.3v26.7c0 7 1.4 13.4 4.3 19a80 80 0 0 0 10.5 15.4c4.2 4.9 8.8 9.7 13.8 14.4 5 4.7 9.6 9.5 13.8 14.5 4.2 5 7.7 10.6 10.6 16.8a49.3 49.3 0 0 1 4.3 20.9v29.1c0 13.6-3.8 24.1-11.4 31.6a36.4 36.4 0 0 1-26.3 11.2h-7.6a37.5 37.5 0 0 1-27.4-11.2 42.4 42.4 0 0 1-11.3-31.6v-53.4h24.1v53c0 7 1.5 12.5 4.3 16.2a13 13 0 0 0 10.8 5.6h3.5c4 0 7.5-1.9 10.3-5.6 2.9-3.7 4.3-9.1 4.3-16.3v-27.2c0-10-3-18.6-9-25.7-6-7.1-12.6-14.2-19.6-21.4-7-7-13.6-14.8-19.6-23a50 50 0 0 1-9-30.4v-29.1c0-13.6 3.6-24.2 11-31.8a36.3 36.3 0 0 1 27.1-11.4h4.5c10.8 0 19.9 3.8 27.4 11.4a43.2 43.2 0 0 1 11.3 31.8v53h-24Z"/><path fill="#fff" d="M1339.5 879.4c.2.6-.3 1-1.1 1.4l-2.8 1.5a41.7 41.7 0 0 1-11.6 3.4 25.7 25.7 0 0 1-11-1v.5c-.4 2.2-1.3 5.3-3.8 8-1.9 2-4.7 3.6-7.9 4.4a25.9 25.9 0 0 1-9 .7 22 22 0 0 1-9-2.4l-.4-.3-.4-.2-1.1-.7-.7-.5-.3-.2-1-.8-.5-.5-1.1-1.1-1.1-1.4-.4-.4c-1.6-2.3-3-5-4.1-8.1-1-2.7-1.6-5.6-2.2-8.8a68.3 68.3 0 0 1-.5-18 153.6 153.6 0 0 1 18-61c1.6-2.9 3.1-5.5 4.8-7.9 2-2.8 3.9-5.2 5.8-7.3l.9-.9.5-.5.3-.3 1.7-1.4.1-.2.8-.6.2-.1.3-.3.7-.4.4-.3 1.7-1 1.9-.8.4-.1 1.2-.3.9-.2h.4c1.6-.2 3.3 0 5 .5 1.7.5 3.2 1.2 4.5 2.2 1.3 1 2.5 2.3 3.2 3.7 1.3 2.5 1.9 5.5 1.8 9.2-.1 2.8-.6 5.6-1.4 9a148.7 148.7 0 0 1-10 24.6 339.6 339.6 0 0 1-36.5 54 50.8 50.8 0 0 1-3 3c.8 2.9 1.8 5.5 3 7.7 1.9 3.3 4.1 5.8 6.8 7.4l.5.3.5.3.5.2.7.4 1.5.5.9.3a13.3 13.3 0 0 0 2.5.5h1.3l.4.1h.8c4 .1 7.3-.5 9.9-1.8 1.5-.7 2.7-1.7 3.7-2.8 1-1.2 1.7-2.5 2.1-4 .3-1 .5-2.2.5-3.3-1.5-1-2.9-2.2-4-3.7a9 9 0 0 1-1.9-6l.2-.7v-.3l.1-.3.3-.6.6-1a2.7 2.7 0 0 1 2.8-1l1.1.7c.7.4 1.1 1 1.4 1.4.6.9 1.1 1.8 1.6 3a21.4 21.4 0 0 1 1.3 6.4c.8.4 1.8.7 2.8 1a33.3 33.3 0 0 0 12.4-.5l1.6-.4 1.4-.4 1.7-.6a38.8 38.8 0 0 0 2.2-.7l.6-.2 1.5-.5c.9-.2 1.4-.2 1.7 0 .2 0 .4.2.4.4Zm-65.7-3.3a210.3 210.3 0 0 0 14.5-17.8 343 343 0 0 0 21.2-33.4c3.7-6.7 6.5-12.7 8.8-18.4 1.4-3.5 2.5-6.7 3.3-9.6 1-3.9 1.5-7 1.6-10 0-1.9 0-3.5-.4-5-.3-1.8-1-3.3-1.9-4.5-1.8-2.5-5-4.1-8.6-4.4h-.4c-1.4 0-3 .3-4.5 1-1.4.7-2.8 1.6-4.4 2.8a35.4 35.4 0 0 0-7 7.7c-3.8 5-7.2 11.1-10.5 18.5-5.7 13-9.6 26.8-11.8 41-1.1 7.7-1.6 14.6-1.3 21 .2 3.9.6 7.3 1.3 10.5l.1.6Z"/><path fill="#fff" d="M1444.4 876a129 129 0 0 1-21.8 19.8c-1.4 1-3 1.7-4.4 2.3a19 19 0 0 1-5 1.5h-.7l-1.3.1h-.8c-.9 0-2.1-.3-3.1-1.2-1-.8-1.6-1.9-1.9-2.7-.4-1-.5-2-.5-2.7-.2-1.8 0-3.5.1-5l.5-3.3.2-1.5a37.2 37.2 0 0 0 .2-6.3l-.5-1-.2-.2-.5-.3-1.2-.7a15.5 15.5 0 0 1-4.1-4c-4 5.3-17.9 22.3-29 23.6l-.9.1c-.5 0-1 0-1.7-.2-1-.2-1.8-.6-2.6-1.1a8.7 8.7 0 0 1-2.9-4.6c-.4-1.4-.5-3-.5-5 .1-1.9.3-3.6.6-5l.3-2 .5-3h-.2l-.7.5-1.6 1-8.2 4.7a62.6 62.6 0 0 1-7.2 3.4l-1.4.3a8 8 0 0 1-2 .2 5 5 0 0 1-2.3-.7 4 4 0 0 1-1.6-1.7 6 6 0 0 1-.3-4.1c.3-1.1 1-2.1 1.7-3 .6-.6 1.4-1.2 2.3-1.7 1.7-1 3.4-1.4 4.8-1.8 1.5-.5 3-.7 4.6-1 2.6-.3 4.2 0 4.4 0 .7 0 1.3.3 1.6.7.3.3.3.8.1 1-.2.4-.5.5-.8.4l-.2-.1h-1c-1.3 0-2.9.2-4.8.8-1.9.5-3.4 1.1-4.7 1.8-1.5.9-2.6 2-3.3 3a3 3 0 0 0-.3.8l-.1.8v.4l.2.2h.6l1-.1c.8-.1 1.7-.4 2.6-.7a134.6 134.6 0 0 0 10.2-4.9l5.3-3 1.6-.7 1.6-.6h.5c.2 0 .6 0 .8.4l.1.6v1.5l-.8 3.7-.6 2.8c-.3 1.6-.6 3.6-.7 5.5-.1 2.1.1 3.8.7 5.2l.2.4.1.2.1.2.2.2.2.3.6.7c.6.5 3.3 1.1 4.4 1.1 7.3 0 25.6-20.7 26.5-21.8.4-.3.7-.8 1-1.2v-.1c-.5-.9-.8-1.7-1-2.5-.2-.8-.3-1.8 0-3l1-1.7a3.6 3.6 0 0 1 3.3-.8l.9.5c.3.2.5.5.6.8l.2.6v1.4l-.7 1.9-.6 1.2-.4.7 1.1 1.6a14 14 0 0 0 3.8 3.1l.3.2c.2 0 .3.2.4.3l.7.7c.4.5.6 1 .8 1.7.3 1 .3 2 .3 3-.1 1.8-.4 3.6-.7 5.3l-.1 1a72.2 72.2 0 0 0-.8 7.3c0 1 0 1.8.3 2.5.2.6.5 1.4 1.3 1.8a4 4 0 0 0 2.3.6c1.6 0 3.4-.4 5.3-1.1a49.3 49.3 0 0 0 9.6-5.7 89.4 89.4 0 0 0 16.8-17.4c.8-1 1.4-1.8 2-1.9.4 0 .7 0 1 .3 1 .8 0 2.4-1.7 4.5Z"/></svg>